<?xml version="1.0" encoding="utf-8"?>
<!-- Generator: Adobe Illustrator 23.0.1, SVG Export Plug-In . SVG Version: 6.00 Build 0)  -->
<svg version="1.1" id="cognitive_architect" xmlns="http://www.w3.org/2000/svg" xmlns:xlink="http://www.w3.org/1999/xlink"
	 x="0px" y="0px" viewBox="0 0 512 512" style="enable-background:new 0 0 512 512;" xml:space="preserve">
<style type="text/css">
	.st0{fill:#bababa;}
</style>
<g>
	<g>
		<path class="st0" d="M430.5,139.1C405.1,44.4,306-11.3,209.2,14.7S54.4,138.4,79.8,233.1c9.6,35.7,26.3,93.5,50,179
			c1.4,4.9,5.8,8.3,10.9,8.2l112.6-0.7c6.2-0.1,11.2-5.1,11.2-11.3l-0.6-84.1c-0.1-6.2-5.1-11.2-11.3-11.2
			c-6.2,0-11.2,5.1-11.2,11.3l0.4,72.8l-92.8,0.6c-22.6-81.1-38.5-136-47.7-170.5C79.3,144.7,130.1,59.2,215,36.4
			s171.6,25.9,193.8,108.5c7.2,26.8,8.9,82.9,4.7,167.1l-78.2,0.5c-6.2,0.1-11.1,5-11.2,11.2l-0.9,141.6l-93.5,1.1
			c-4.3-8.7-13.4-14.7-24-14.7c-14.7,0-26.6,11.6-26.6,26c0,14.4,11.9,26,26.6,26c10.6,0,19.7-6,24-14.7l104.8-1.2
			c6.2-0.1,11.1-5,11.1-11.2l0.9-141.6l77.7-0.4c5.9-0.1,10.9-4.7,11.1-10.6C440.3,231.3,438.8,170.1,430.5,139.1z"/>
		<path class="st0" d="M302.4,163.7c15,11.4,36.4,8.3,47.8-6.7s8.3-36.4-6.7-47.8c-11.7-8.8-27.2-9-38.8-1.5
			c-33.7-21.6-78-20.4-110.8,4.3c-20.6,15.5-33.7,38.1-37.6,62.9c-0.9,6.2,3.3,11.9,9.4,12.8s11.9-3.3,12.8-9.4
			c2.9-19.2,13.1-36.5,28.9-48.4c24.6-18.5,57.6-19.8,83.3-4.4C286,139.1,290.3,154.6,302.4,163.7z M329.9,127.2
			c5.1,3.9,6.2,11.1,2.3,16.3c-3.9,5.1-11.1,6.2-16.3,2.3c-5.2-3.9-6.2-11.1-2.3-16.3C317.4,124.4,324.8,123.3,329.9,127.2z"/>
		<path class="st0" d="M168.6,266.6c10.1,7.6,23.1,8.8,33.9,4.1c33.7,21.2,77.5,19.8,110-4.7c20.6-15.5,33.7-38.1,37.6-62.9
			c0.9-6.2-3.3-11.9-9.4-12.8c-6.2-0.9-11.9,3.3-12.8,9.4c-2.9,19.2-13.1,36.5-28.9,48.4c-23.4,17.6-54.4,19.7-79.5,6.5
			c7.3-14.5,3.4-32.5-9.9-42.6c-15-11.4-36.4-8.3-47.8,6.7C150.5,233.9,153.5,255.3,168.6,266.6z M179.9,232.4
			c3.9-5.1,11.1-6.2,16.3-2.3c5.2,3.9,6.2,11.1,2.3,16.3c-3.9,5.2-11.1,6.2-16.3,2.3C177,244.7,176,237.5,179.9,232.4z"/>
	</g>
</g>
</svg>
